<svg width="58" height="43" viewBox="0 0 58 43" fill="none" xmlns="http://www.w3.org/2000/svg">
<path d="M6.9011 40H5.79315L8.99769 31.2727H10.0886L13.2931 40H12.1852L9.57724 32.6534H9.50906L6.9011 40ZM7.31019 36.5909H11.7761V37.5284H7.31019V36.5909ZM17.1752 40.1364C16.5616 40.1364 16.0332 39.9915 15.59 39.7017C15.1468 39.4119 14.8059 39.0128 14.5673 38.5043C14.3287 37.9957 14.2093 37.4148 14.2093 36.7614C14.2093 36.0966 14.3315 35.5099 14.5758 35.0014C14.823 34.4901 15.1667 34.0909 15.6071 33.804C16.0502 33.5142 16.5673 33.3693 17.1582 33.3693C17.6184 33.3693 18.0332 33.4545 18.4025 33.625C18.7718 33.7955 19.0744 34.0341 19.3102 34.3409C19.546 34.6477 19.6923 35.0057 19.7491 35.4148H18.7434C18.6667 35.1165 18.4963 34.8523 18.2321 34.6222C17.9707 34.3892 17.6184 34.2727 17.1752 34.2727C16.7832 34.2727 16.4395 34.375 16.144 34.5795C15.8514 34.7812 15.6227 35.0668 15.4579 35.4361C15.296 35.8026 15.215 36.233 15.215 36.7273C15.215 37.233 15.2946 37.6733 15.4537 38.0483C15.6156 38.4233 15.8429 38.7145 16.1355 38.9219C16.4309 39.1293 16.7775 39.233 17.1752 39.233C17.4366 39.233 17.6738 39.1875 17.8869 39.0966C18.1 39.0057 18.2804 38.875 18.4281 38.7045C18.5758 38.5341 18.6809 38.3295 18.7434 38.0909H19.7491C19.6923 38.4773 19.5517 38.8253 19.3272 39.1349C19.1056 39.4418 18.8116 39.6861 18.4451 39.8679C18.0815 40.0469 17.6582 40.1364 17.1752 40.1364ZM23.8784 40.1364C23.2647 40.1364 22.7363 39.9915 22.2931 39.7017C21.85 39.4119 21.5091 39.0128 21.2704 38.5043C21.0318 37.9957 20.9125 37.4148 20.9125 36.7614C20.9125 36.0966 21.0346 35.5099 21.2789 35.0014C21.5261 34.4901 21.8699 34.0909 22.3102 33.804C22.7534 33.5142 23.2704 33.3693 23.8613 33.3693C24.3216 33.3693 24.7363 33.4545 25.1056 33.625C25.475 33.7955 25.7775 34.0341 26.0133 34.3409C26.2491 34.6477 26.3954 35.0057 26.4522 35.4148H25.4466C25.3699 35.1165 25.1994 34.8523 24.9352 34.6222C24.6738 34.3892 24.3216 34.2727 23.8784 34.2727C23.4863 34.2727 23.1426 34.375 22.8471 34.5795C22.5545 34.7812 22.3258 35.0668 22.161 35.4361C21.9991 35.8026 21.9181 36.233 21.9181 36.7273C21.9181 37.233 21.9977 37.6733 22.1568 38.0483C22.3187 38.4233 22.546 38.7145 22.8386 38.9219C23.1341 39.1293 23.4806 39.233 23.8784 39.233C24.1397 39.233 24.377 39.1875 24.59 39.0966C24.8031 39.0057 24.9835 38.875 25.1312 38.7045C25.2789 38.5341 25.3841 38.3295 25.4466 38.0909H26.4522C26.3954 38.4773 26.2548 38.8253 26.0304 39.1349C25.8088 39.4418 25.5147 39.6861 25.1483 39.8679C24.7846 40.0469 24.3613 40.1364 23.8784 40.1364ZM30.5815 40.1364C29.9906 40.1364 29.4721 39.9957 29.0261 39.7145C28.5829 39.4332 28.2363 39.0398 27.9863 38.5341C27.7392 38.0284 27.6156 37.4375 27.6156 36.7614C27.6156 36.0795 27.7392 35.4844 27.9863 34.9759C28.2363 34.4673 28.5829 34.0724 29.0261 33.7912C29.4721 33.5099 29.9906 33.3693 30.5815 33.3693C31.1724 33.3693 31.6895 33.5099 32.1326 33.7912C32.5787 34.0724 32.9252 34.4673 33.1724 34.9759C33.4224 35.4844 33.5474 36.0795 33.5474 36.7614C33.5474 37.4375 33.4224 38.0284 33.1724 38.5341C32.9252 39.0398 32.5787 39.4332 32.1326 39.7145C31.6895 39.9957 31.1724 40.1364 30.5815 40.1364ZM30.5815 39.233C31.0304 39.233 31.3997 39.1179 31.6895 38.8878C31.9792 38.6577 32.1937 38.3551 32.3329 37.9801C32.4721 37.6051 32.5417 37.1989 32.5417 36.7614C32.5417 36.3239 32.4721 35.9162 32.3329 35.5384C32.1937 35.1605 31.9792 34.8551 31.6895 34.6222C31.3997 34.3892 31.0304 34.2727 30.5815 34.2727C30.1326 34.2727 29.7633 34.3892 29.4735 34.6222C29.1838 34.8551 28.9693 35.1605 28.8301 35.5384C28.6909 35.9162 28.6213 36.3239 28.6213 36.7614C28.6213 37.1989 28.6909 37.6051 28.8301 37.9801C28.9693 38.3551 29.1838 38.6577 29.4735 38.8878C29.7633 39.1179 30.1326 39.233 30.5815 39.233ZM39.2076 37.3239V33.4545H40.2132V40H39.2076V38.892H39.1394C38.986 39.2244 38.7473 39.5071 38.4235 39.7401C38.0996 39.9702 37.6905 40.0852 37.1962 40.0852C36.7871 40.0852 36.4235 39.9957 36.1053 39.8168C35.7871 39.6349 35.5371 39.3622 35.3553 38.9986C35.1735 38.6321 35.0826 38.1705 35.0826 37.6136V33.4545H36.0882V37.5455C36.0882 38.0227 36.2218 38.4034 36.4888 38.6875C36.7587 38.9716 37.1025 39.1136 37.5201 39.1136C37.7701 39.1136 38.0243 39.0497 38.2828 38.9219C38.5442 38.794 38.763 38.598 38.9391 38.3338C39.1181 38.0696 39.2076 37.733 39.2076 37.3239ZM43.0609 36.0625V40H42.0552V33.4545H43.0268V34.4773H43.112C43.2654 34.1449 43.4984 33.8778 43.8109 33.6761C44.1234 33.4716 44.5268 33.3693 45.0211 33.3693C45.4643 33.3693 45.8521 33.4602 46.1845 33.642C46.5169 33.821 46.7754 34.0938 46.96 34.4602C47.1447 34.8239 47.237 35.2841 47.237 35.8409V40H46.2314V35.9091C46.2314 35.3949 46.0978 34.9943 45.8308 34.7074C45.5637 34.4176 45.1973 34.2727 44.7314 34.2727C44.4103 34.2727 44.1234 34.3423 43.8706 34.4815C43.6206 34.6207 43.4231 34.8239 43.2782 35.0909C43.1333 35.358 43.0609 35.6818 43.0609 36.0625ZM51.9213 33.4545V34.3068H48.5293V33.4545H51.9213ZM49.5179 31.8864H50.5236V38.125C50.5236 38.4091 50.5648 38.6222 50.6472 38.7642C50.7324 38.9034 50.8404 38.9972 50.9711 39.0455C51.1046 39.0909 51.2452 39.1136 51.3929 39.1136C51.5037 39.1136 51.5946 39.108 51.6657 39.0966C51.7367 39.0824 51.7935 39.071 51.8361 39.0625L52.0407 39.9659C51.9725 39.9915 51.8773 40.017 51.7551 40.0426C51.633 40.071 51.4782 40.0852 51.2907 40.0852C51.0066 40.0852 50.7282 40.0241 50.4554 39.902C50.1855 39.7798 49.9611 39.5938 49.7821 39.3438C49.606 39.0938 49.5179 38.7784 49.5179 38.3977V31.8864Z" fill="#6156B2"/>
<path fill-rule="evenodd" clip-rule="evenodd" d="M25.25 9C25.25 8.00544 25.6451 7.05161 26.3483 6.34835C27.0516 5.64509 28.0054 5.25 29 5.25C29.9946 5.25 30.9484 5.64509 31.6517 6.34835C32.3549 7.05161 32.75 8.00544 32.75 9C32.75 9.99456 32.3549 10.9484 31.6517 11.6517C30.9484 12.3549 29.9946 12.75 29 12.75C28.0054 12.75 27.0516 12.3549 26.3483 11.6517C25.6451 10.9484 25.25 9.99456 25.25 9ZM29 6.75C28.4033 6.75 27.831 6.98705 27.409 7.40901C26.9871 7.83097 26.75 8.40326 26.75 9C26.75 9.59674 26.9871 10.169 27.409 10.591C27.831 11.0129 28.4033 11.25 29 11.25C29.5967 11.25 30.169 11.0129 30.591 10.591C31.0129 10.169 31.25 9.59674 31.25 9C31.25 8.40326 31.0129 7.83097 30.591 7.40901C30.169 6.98705 29.5967 6.75 29 6.75Z" fill="#6156B2"/>
<path fill-rule="evenodd" clip-rule="evenodd" d="M18.25 12C18.25 6.063 23.063 1.25 29 1.25C34.937 1.25 39.75 6.063 39.75 12C39.75 17.937 34.937 22.75 29 22.75C23.063 22.75 18.25 17.937 18.25 12ZM29 2.75C27.1727 2.75008 25.3863 3.29139 23.8663 4.30561C22.3463 5.31983 21.1608 6.76153 20.4593 8.44881C19.7577 10.1361 19.5717 11.9933 19.9245 13.7863C20.2774 15.5792 21.1534 17.2274 22.442 18.523C22.622 17.55 22.977 16.633 23.688 15.895C24.753 14.791 26.454 14.25 29 14.25C31.546 14.25 33.247 14.791 34.311 15.895C35.023 16.633 35.377 17.551 35.558 18.524C36.8469 17.2285 37.7232 15.5801 38.0763 13.7871C38.4294 11.994 38.2434 10.1365 37.5418 8.449C36.8402 6.76151 35.6545 5.31966 34.1343 4.30539C32.6141 3.29112 30.8275 2.74989 29 2.75ZM34.194 19.655C34.092 18.443 33.829 17.555 33.232 16.936C32.582 16.263 31.379 15.75 29 15.75C26.621 15.75 25.418 16.263 24.768 16.936C24.171 17.556 23.908 18.443 23.806 19.656C25.3374 20.6981 27.1477 21.2537 29 21.25C30.8524 21.2534 32.6627 20.6975 34.194 19.655Z" fill="#6156B2"/>
</svg>
